<?xml version="1.0" encoding="UTF-8"?>
<!DOCTYPE svg PUBLIC "-//W3C//DTD SVG 1.1//EN" "http://www.w3.org/Graphics/SVG/1.1/DTD/svg11.dtd">
<!-- Creator: CorelDRAW (Versión OEM) -->
<svg xmlns="http://www.w3.org/2000/svg" xml:space="preserve" width="100mm" height="100mm" version="1.1" style="shape-rendering:geometricPrecision; text-rendering:geometricPrecision; image-rendering:optimizeQuality; fill-rule:evenodd; clip-rule:evenodd"
viewBox="0 0 10000 10000"
 xmlns:xlink="http://www.w3.org/1999/xlink"
 xmlns:xodm="http://www.corel.com/coreldraw/odm/2003">
 <defs>
  <style type="text/css">
   <![CDATA[
    .str0 {stroke:#E8FAF2;stroke-width:20;stroke-miterlimit:22.9256}
    .fil1 {fill:none}
    .fil0 {fill:#201E1E}
    .fil5 {fill:#404145}
    .fil2 {fill:#484848}
    .fil6 {fill:#A6EACB}
    .fil3 {fill:#B1E1D2}
    .fil4 {fill:#FEFFFF}
   ]]>
  </style>
 </defs>
 <g id="Capa_x0020_1">
  <metadata id="CorelCorpID_0Corel-Layer"/>
  <g id="_2043680560464">
   <g>
    <g>
     <path class="fil0 str0" d="M2306.26 9317.91c-7,-65.56 -19.61,-130.64 -25.54,-198.22 -22.23,-253.62 -6.78,-385.34 15.46,-639 5.16,-58.82 41.2,-578.13 66.97,-605.9 19.07,-20.54 112.06,-58.63 147.2,-72.65 166.88,-66.56 294.46,-134.37 430.03,-242.1 21.65,-17.21 39.47,-30.7 60.81,-49.01 10.74,-9.21 20.66,-15.01 30.51,-24.69 10.65,-10.48 13.15,-15.3 26.82,-27.92 55.63,-51.33 151.32,-193.5 189.03,-259.21 70.19,-122.29 89.76,-180.18 128.7,-315.24 202.61,34.54 407.74,85.73 604.61,128.98 -21.28,77.71 -173.22,224.46 -225.71,266.76 -100.24,80.8 -166.25,134.31 -279.05,207.19 -97.17,62.78 -197.32,123.71 -310.89,175.38 -113.55,51.67 -238.29,83.21 -341.63,144.54 -11.01,50.28 -9.48,133.91 -12.17,188.34 -9.87,199.37 -22.33,799.57 -6.58,963.62 11.45,119.09 38.62,235.92 33.04,359.48l-531.61 -0.35zm-1818.51 -1700.65l0 -45.34c4.99,-93.25 40.28,-183.54 95.51,-263.51 56.7,-82.09 144.68,-143.04 204.1,-222.93 12.48,-16.77 23.85,-30.67 36.13,-48.43 271.26,-392.48 143.58,-812.04 54.99,-1254.96 -12.56,-62.82 -39.1,-226.88 -39.98,-298.25 -4.34,-351.25 69.76,-688.73 290.87,-939.8 32.76,-37.19 72.49,-69.8 112.74,-98.66 18.07,-12.96 31.15,-23.02 50.26,-34.29 76.03,-44.83 151.38,-79.08 238.18,-104.29 46.31,-13.44 92.11,-20.63 137.79,-31.33 37.77,-8.84 47.94,-31.18 74.48,-52.36 38.59,-30.78 72.47,-69.1 109.53,-101.86 59.07,-52.23 129.51,-102.33 199.71,-138.52 19.21,-9.9 35.31,-19.72 54.97,-29.59l149.97 -61.43c146.7,-48.91 313.66,-73.19 475.93,-77.94 20.21,-0.59 19.3,-3.38 37.89,-4.39 39.77,-2.14 87.28,0.45 123.25,-3.59 50.95,-5.72 117.23,5.1 167.34,-1.77 48.79,-6.68 109.08,-2.26 161.2,-7.92 97.1,-10.56 197.5,-24.49 290.68,-47.55 130.93,-32.41 256.54,-83.2 382.67,-128.91 349.84,-126.78 646.94,-272.84 1025.63,-327.31 70.27,-10.11 159.54,-20.28 233.78,-19.9l160.84 8.33c74.01,5 143.98,22.56 213.8,39.87 39.82,9.88 96.32,27.93 141.19,27.93 42.87,-89.34 83.52,-303.39 117.85,-406.42 43.26,-129.82 94.66,-250.86 147.3,-372.73 92.21,-213.5 200.75,-427.7 264.26,-653.21 4.65,-16.49 8.39,-29.72 12.83,-50.58 1.78,-8.32 8.39,-45.05 11.62,-51.8 -77.7,-18.11 -164.29,-79.18 -243.61,-107.31 -100.09,-35.5 -193.22,-45.35 -300.02,-26.21 -322.69,57.81 -489.9,370.11 -669.62,374.68 -267.14,6.79 -195.24,-285.04 -235.19,-458.52 -24.44,-106.12 -86.23,-202.05 -179.45,-256.04 -285.56,-165.38 -752.21,126.36 -962.52,11.24 -119.75,-65.55 -64,-196.44 -84.57,-346.68 -3.83,-27.98 -5.59,-47.15 -12.44,-72.12 -25.25,-92.07 -68.64,-160.65 -169.31,-177.38 -211.83,-35.2 -418.1,157.65 -521.39,166.24 -4.63,-17.36 -39.21,-59.81 -52,-74.84 -55.22,-64.9 -133.81,-136.1 -172.08,-208.43 60.58,-90.47 221.91,-194.86 315.62,-242.46 61.17,-31.07 128.33,-58.98 197.5,-81.55 73.92,-24.11 139.36,-38.35 226.77,-49.43 129.15,11.57 166.16,-6.64 315.47,41.02 179.84,57.41 257.59,139.4 373.35,248.03 7.54,7.07 15.31,12.8 23.39,19.49 12.78,10.59 12.37,9.75 31.01,5.35 92.83,-21.92 180.57,-59.76 275.29,-84.64 318.4,-83.6 573.69,0.07 816.18,182.44 35.31,26.56 64.69,53.5 97.05,80.68l46.73 42.11c73.01,64.4 49.91,62.94 171.39,1.54 144.08,-72.83 225.1,-110.47 400.88,-131.43 381.47,-45.48 721.35,104.43 1026.81,298.02 17.86,11.31 34.43,23.69 54.75,33.92 92.32,46.46 205.06,2.23 312.36,0.55 146.52,-2.29 242.77,20.74 338.24,20.72 19.16,2.32 44.71,12.42 63.4,17.32 21.93,5.75 41.46,11.45 63.43,16.89 41.44,10.27 82.72,19.35 125.07,31.37 246.49,70.04 252.47,74.34 470.5,163.7l107.68 48.74c19.6,9.93 35.45,15.48 55,25.34 18.56,9.35 32.13,16.11 50.71,25.39 99.17,49.59 218.06,108.96 312.29,165.46 17.71,10.61 32.93,18.93 50.74,29.6 94.59,56.63 293.51,186.41 368.07,261.9l39.23 36.87c26.1,28.23 53.9,53.81 75.62,85.04 88.18,126.81 79.53,235.49 54.39,387.72 -28.51,172.77 -87.2,341.68 -167.76,462.2 -88.53,132.46 -189.12,219.6 -376.97,252.99 -66.2,11.77 -232.56,17.42 -303.21,7.73l-227.13 -9.63c-25.37,0.13 -50.76,0.03 -76.13,0.03 1.75,78.51 169.26,508.66 205.35,597.96 15.94,39.45 30.53,76.79 44.63,116.02 27.93,77.73 57.38,156.54 81.32,240.4 30.75,107.67 90.62,349.69 91.65,470.28 0.27,31.68 4.18,48.58 4.22,76.11 0.15,110.79 -9.62,203.68 -24.91,296.71 -7.87,47.92 -17.98,85.61 -28.52,132.14l-35.5 125.15c-22.59,-1.88 -13.39,-13.37 -53.18,-6.68 -36.69,6.18 -27.19,-0.1 -52.52,-6 -25.7,53.54 -57.82,350.02 -87.88,465.98 -9.74,37.57 -21.22,73.34 -34.12,105.4 -23.15,57.51 -115.41,257.58 -123.23,291.12 -38.2,-0.85 -63.78,-39.29 -131.06,-54.96 -23.81,102.19 -129.61,262.8 -192.05,349.12 -28.24,39.04 -122.69,163.78 -129.27,192.05 -60.12,-5 -107.85,-64.82 -169.12,-97.24 -24.63,21.4 -44.76,42.47 -65.86,69.43 -20.95,26.76 -34.42,51.31 -52.53,78.54 -9.04,13.59 -16.75,28.64 -25.12,42.53 -40.92,67.87 -77.84,138.14 -121.95,203.6 -51.41,76.29 -137.03,160.84 -170.02,223.18 -33.6,-2.8 -41.88,-22.61 -71.88,-29.6 -11.78,50.57 -19.92,115.29 -28.39,166.09 -9.61,57.62 -18.16,109.1 -27.76,166.72 -26.52,158.96 -56.9,347.59 -75.26,508.19 -7.72,67.52 -35.6,284.56 -37.7,351.29l-8.44 135.3c-1.95,37.89 -8.75,90.27 -8.57,135.18 0.42,103.38 -12.54,176.97 -0.52,283.99 6.57,58.52 0.12,129.53 5.07,189.42 9.04,109.48 17.53,248.94 31.78,352.95l61.01 508.22 -2307.23 0c-12.79,-78.59 13.59,-434.3 -1.22,-467.55 0,-49.54 -4.48,-87.23 -4.18,-139.78 0.17,-29.63 -4.39,-40.24 -4.43,-67.45l4.36 -351.07c-0.17,-46.88 4.36,-87.9 4.15,-139.61 -0.12,-28.83 4.54,-38.62 4.42,-67.45 -0.09,-21.38 -1.78,-50.91 0.52,-71.36 7.54,-67.1 8.07,-139.72 7.82,-207.8 -0.1,-27.93 3.09,-41.56 4.26,-63.38 7.02,-129.85 0.32,-295.39 0.13,-431.42l-8.61 -130.91c-8.63,-173.09 -33.69,-335.03 -71.86,-498.91 -98.23,0 -183.71,-8.45 -279.05,-8.45l-48.88 94.86c-34.53,57.3 -72.93,112.42 -117.1,161.96l-207.22 215.57c-59.28,57.06 -121.67,114.1 -187.9,163.01 -14.84,10.96 -26.15,20.07 -40.24,31.64 -77.28,63.5 -160.54,119.12 -246.69,171.88 -60.65,37.14 -115.64,69.69 -180.76,102.51 -47.87,24.13 -150.37,73.24 -201.54,77.5l-8.48 321.3c-1.92,35.57 1.97,74.4 0.04,109.97 -1.06,19.64 -4.44,26.07 -4.34,50.62l-0.05 220.09c0.03,24.47 3.89,28.83 4.51,50.46 2.84,99.29 14.09,206.56 28.15,301.63l51.69 388.01c3.78,33.07 8.93,66.91 12.29,97.64 3.3,30.19 9.2,67.92 9.2,96.49l-2329.59 0 12.68 -427.02c-0.02,-75.67 4.45,-138.25 4.13,-215.72l8.7 -211.16c1.08,-36.21 -0.76,-73.84 -0.31,-110.23l8.77 -211.09c0.05,-35.29 -2.04,-75.41 -0.17,-110.09l4.25 -105.68c0,-40.8 4.49,-69.4 4.29,-105.64 -0.44,-76.04 4.16,-136.95 4.16,-211.45 -22.45,10.77 -126.85,7.36 -159.01,2.58 -127.66,-18.96 -248.07,-81.72 -315.91,-191.44 -41.83,-67.66 -62.55,-137.23 -66.25,-205.86zm5853.24 -571.71c76.94,-9.24 150.58,-15.28 223.87,-29.66 71.86,-14.11 131.69,-34.81 197.45,-52.13 -2.63,86.29 -24.46,197.2 -40.24,281.26 -89.9,478.96 -130.19,988.87 -129.46,1477.25 0.31,200.26 52.88,400.76 43.36,596.01l-526.76 0c-44.33,-172.97 -49.04,-410.57 -49.05,-600.24 0,-208.66 9.89,-417.13 28.95,-622.17 48.49,-521.6 82.6,-509.72 216.33,-925.14 11.75,-36.51 21.72,-91.29 35.55,-125.18zm-5476.54 565.16c-2.92,-104.51 50.19,-137.33 125.42,-208.56 20.62,-19.53 34.72,-35.38 53.94,-56.12 67.92,-73.29 126.2,-158.2 178.2,-261.37 107.18,-212.66 153.03,-457.4 136.15,-738.66 -23.6,-393.1 -201.56,-768.88 -119.54,-1168.31 16.77,-81.69 45.01,-174.15 85.77,-244.24 12.23,-21.03 25.31,-52.03 38,-70.91 9.49,71.04 -37.41,284.16 -37.86,426.64 -1.05,327.93 96.32,480.5 184.54,746 45.7,137.53 59.05,253.63 52.81,412.5 -13.45,342.58 -221.22,735.35 -418.32,977.12 -53.74,65.92 -143.2,202.17 -279.11,185.91zm6091.63 -5801.42c-26.86,244.54 -133.04,612.96 -214.26,842.66 -22.36,63.23 -55.69,134.69 -118.08,148.09 -80.9,17.36 -131.86,-47.8 -152.45,-103.57 -47.94,-129.86 -29.93,-329.03 -3.7,-466.89 45.02,-236.57 177.66,-556.03 369.11,-687.74 246.55,-169.63 525.17,-180.53 859.55,-108.39 281.51,60.75 543.9,171.36 763.38,293.75 58.04,32.36 113.52,65.43 167.68,98.64 13.93,8.53 30.21,20 41.16,26.67 119.99,72.97 238.73,154.26 351.87,235.48 40.58,29.13 58.48,23.83 58.44,72.34 -0.17,207.98 -43.77,505.94 -287.32,507.58 -408.13,2.76 -809.75,-74.73 -1217.58,-97.07 -35.21,89.81 -72.12,269.68 -43.02,376.06l171.36 23.42c56.67,6.72 114.56,14.48 171.15,19.49 33.9,69.39 64.12,152.81 91.38,229.87l250.22 701.08c53.69,149.48 105.48,327.86 125.94,508.65 44.49,393.2 -54.41,233.85 -146.96,473.74 -62.42,161.77 -84.38,469.64 -108.55,525.53 -12.78,29.56 -56.23,59.32 -83.01,77.65 -172.44,117.95 -178.92,273.4 -255.81,378.49 -64.88,88.67 -177.05,19.84 -324.94,148.69 -91.75,79.94 -236.94,258.6 -269.78,364.35 -174.84,-6.62 -251.32,24.9 -361.35,103.56 -69.23,49.48 -199.9,140.57 -315.33,144.32 26.39,-92.28 56.9,-177.84 87.86,-265.98 18.09,-51.52 76.08,-221.66 70.64,-277.01l-361.09 -81.09c-49.6,120.32 -82.75,247.64 -124.26,374.6 -142.41,435.54 -424.11,1092 -448.44,1531.04 -8.5,153.54 -14.27,312.95 -26.43,465.74 -12.09,151.79 -27.8,320.83 -25.68,472.98 2.15,153.76 43.45,294.88 51.96,448.81l-556.31 2.86c-32.94,-552.07 29.68,-1117.49 24.88,-1673.55 -1.13,-129.92 -26.53,-259.65 -45.07,-386.41 -12.32,-84.22 -162.51,-1087.22 -160.72,-1122.03l-379.11 45.56c6.6,80.52 20.85,165.61 30.94,245.15 3.9,30.72 30.19,196.32 28.67,224.56l-2.21 10.75c-0.13,-0.6 -0.67,2.43 -1.22,3.55 -229.49,25.82 -603.19,-37.67 -834.2,-76.94 -204.75,-34.8 -350.15,-73.02 -534.64,-150.09 -45.15,-18.85 -116.39,-49.77 -168.08,-58.93 -10.49,36.04 -32.42,175.16 -49.8,244.68 -19.4,77.59 -43.28,150.18 -70.72,220.98 -114.98,296.68 -289.24,454.42 -569.36,589.15 -99.42,47.82 -203.68,91.39 -311.37,124.03 -35.33,10.71 -77.47,19.83 -111.4,32.34 -11.94,146.88 -21.37,290.64 -37.87,436.51 -15.82,139.9 -30.48,283.25 -43.85,424.57 -13.62,143.96 -39.81,288.15 -38.25,435.6 1.53,144.57 45.08,281.93 37.5,431.09l-548.17 -0.52c-9.43,-107.96 -5.22,-216.18 -4.87,-324.88 0.32,-100.32 34.12,-1224.27 43.79,-1275.44 7.57,-40.12 41.78,-75.32 62.41,-102.34 123.18,-161.25 220.6,-314.52 309.01,-511.17 140.46,-312.47 212.14,-742.34 105.22,-1113.28 -48.61,-168.62 -126.88,-322.11 -166.52,-493 -46.51,-200.5 -39.23,-377.38 14.59,-575.57 89.22,-328.52 329.33,-579.6 632.55,-686.52 193.16,-68.12 364.05,-74.51 586.62,-60.18 212.02,13.66 391.52,-8.27 582.02,-60.61 462.8,-127.19 1093.14,-423.25 1509.02,-465.2 222.47,-22.43 379.05,3.93 544.35,92.26 -24.43,405.4 -42.79,760.47 37.67,1155.36 63.69,312.6 194.21,703.49 373.06,868.92 56.48,-26.2 94.3,-82.22 142.37,-118.86 40.02,-30.51 106.02,-83.67 128.02,-129.74 -7.34,-18.01 -27.3,-44.78 -38.55,-62.77 -102.56,-164.08 -152.02,-276.64 -203.41,-477.22 -119.19,-465.31 -100.78,-944.69 -21.61,-1418.78 19.84,-118.79 87.65,-484.61 160.77,-596.41l7.78 -9.92c0.32,-1.46 1.44,-1.61 2.2,-2.36 16.28,10.2 26.23,25.92 42.3,43.26 8.05,8.66 11.53,14.92 19.24,23.32 34.83,38 66.02,68.97 111.02,100.22 69.57,48.32 152.81,77.68 258.69,81.22 223.24,7.48 341.4,-125.86 422.05,-256.09 109.35,-176.58 298.78,-785.91 306.96,-1047.81 -1.04,-0.59 -2.46,-1.2 -3.26,-1.54 -0.8,-0.33 -2.28,-1.07 -3.28,-1.45 -19.53,-7.55 8.05,2.2 -6.68,-2.45 -50.3,-15.86 -332.33,-76.2 -356.83,-79.42zm-1487.36 -503.7c7.04,-16.46 82.43,-86.65 100.74,-100.96 123.17,-96.22 262.25,-152.58 429.38,-166.32 121.36,-9.97 242.43,12.62 347.18,45.73 50.22,15.88 98.59,36.19 141.88,57.01 77.13,37.08 63.28,36.13 121.57,75.51 -5.87,10.25 -44.2,46.88 -57.16,57.67 -75.04,62.51 -100.73,92.11 -149.89,183.5 -183.49,-47.66 -347.63,-216.43 -680.48,-189.48 -84.64,6.84 -168.07,30.19 -253.22,37.34zm-1083.41 -435.07c151.77,-33.98 291.56,-49.58 431.02,13.8 123.81,56.25 245.48,176.02 296.87,201.7 -8.32,55.27 -48.69,97.91 -93.1,127.72 -17.76,-12.12 -77.26,-117.35 -177.63,-190.59 -90.48,-66.03 -149.27,-80.36 -269.87,-97.67 -54.83,-7.87 -156.89,-23.27 -187.29,-54.96z"/>
     <path class="fil1" d="M6305.44 7170.73c-133.73,415.42 -167.84,403.54 -216.33,925.14 -19.06,205.04 -28.95,413.51 -28.95,622.17 0.01,189.67 4.72,427.27 49.05,600.24l526.76 0c9.52,-195.25 -43.05,-395.75 -43.36,-596.01 -0.73,-488.38 39.56,-998.29 129.46,-1477.25 15.78,-84.06 37.61,-194.97 40.24,-281.26 -65.76,17.32 -125.59,38.02 -197.45,52.13 -73.29,14.38 -146.93,20.42 -223.87,29.66"/>
     <path class="fil0" d="M4331.46 4416.79c11.18,11.98 29.69,25.4 42.2,37 45.51,42.21 73.29,88.62 102.59,147.1 38.11,76.06 60.74,158.45 80.34,249.31 41.18,190.88 50.08,408.2 54,610.76 64.37,31.1 296.95,14.25 384.2,13.13 -4.58,-279.6 -23.27,-565.19 -96.28,-817.97 -34.76,-120.37 -78.48,-231.94 -132.51,-324.21 -47.15,-80.54 -143.26,-198.65 -215.81,-239.49 -25.99,12.53 -94.03,117.24 -118.57,150.91 -39.6,54.31 -79.55,97.05 -100.16,173.46z"/>
     <path class="fil0" d="M3168.35 4734.89c11.17,11.98 29.68,25.4 42.19,37 45.51,42.21 73.29,88.61 102.6,147.1 38.11,76.06 60.73,158.45 80.33,249.31 41.19,190.88 50.08,408.2 54,610.76 64.37,31.1 296.96,14.25 384.2,13.13 -4.58,-279.6 -23.27,-565.19 -96.27,-817.97 -34.76,-120.37 -78.49,-231.94 -132.51,-324.21 -47.16,-80.54 -143.27,-198.65 -215.81,-239.49 -26,12.53 -94.03,117.24 -118.58,150.91 -39.6,54.31 -79.55,97.05 -100.15,173.46z"/>
     <path class="fil0" d="M8749.78 2209.37c7.36,14.16 51.21,42.24 66.97,53.7 36.56,-50.62 71.39,-104.21 92.12,-159.18 -32.05,-25.94 -111.81,39.59 -159.09,105.48z"/>
     <path class="fil0" d="M8836.41 2342.3c7.36,14.17 51.21,42.24 66.97,53.71 36.56,-50.63 71.39,-104.21 92.12,-159.18 -32.05,-25.94 -111.81,39.59 -159.09,105.47z"/>
     <path class="fil0" d="M4097.82 5642.9c0.56,166.75 -15.63,318.8 -21.75,481.95l380.38 49.51c12.76,-50.1 14.69,-156.82 19.21,-213.98 32.22,-407.35 0.01,-842.53 -260.98,-1165.7l-31.11 -36.03c-4.26,-5.79 -3.59,-5.3 -4.01,-6.05 -43.51,21.95 -120.66,121.73 -158.08,167.26 -21.77,26.49 -49.71,49.42 -77.39,87.43 -20.95,28.76 -12.91,26.58 33.49,100.49 84.34,134.34 120.04,343.26 120.24,535.12z"/>
     <path class="fil0" d="M7100.25 9710.06l-2307.23 0c-12.79,-78.59 13.59,-434.3 -1.22,-467.55 -21.75,44.05 -16.66,330.99 -17.02,418.46 -0.11,27.06 4.33,34.69 4.33,59.09 17.17,1.43 47.36,5.99 64.04,7.84l219.29 4.79c26.62,-0.15 37.89,3.51 59.63,4.29l528 0 292.98 0 2.75 -0.22c187.25,-15.5 393.73,6.5 587.92,-3.99 84.04,-4.54 378.32,-9.09 439.47,-4.03 32.46,2.69 83.89,8.21 116.85,-10.5 0.88,-0.5 1.96,-1.15 2.78,-1.69 7.45,-4.9 1.76,-0.06 7.43,-6.49z"/>
    </g>
   </g>
  </g>
  <g id="_2043680559168">
   <g>
    <g>
     <path class="fil2" d="M29165.28 1699.77c16.82,-99.58 58.75,-242.47 -21.31,-304.35 -79.41,-61.37 -240.84,-52.21 -325.33,-17.34 -82.52,34.06 -78.06,143.12 -108.6,275.36 -23.55,101.92 -47.13,204.82 -72.41,305.5 -49.63,197.65 -103.04,401.22 -162.54,592.98 -56.44,181.91 -138,411.37 -170.36,602.54 106.33,41.55 296.7,97.34 413.44,45.82 50.09,-22.1 48.93,-41.13 73.65,-103.34 105.37,-265.17 212.52,-821.86 302.44,-1006.16 50.52,-103.57 127.34,-216.29 215.41,-276.35 55.52,-37.86 68.05,-40.88 144.01,-27.17 27.38,45.18 13.33,78.39 40.48,130.36 176.41,55.81 256.6,-64 317.99,-170.42 286.99,-497.47 -413.81,-550.62 -646.87,-47.43z"/>
     <path class="fil3" d="M28383.43 3272.78c48.25,159.32 381.9,147.35 470.6,107.47 121.15,-54.46 157.16,-310.82 192.78,-463.13 75.05,-320.99 138.05,-701.89 393.1,-915.27 -7.93,-11.75 -58.98,-101.93 -68.82,-111.96 -326.79,234.8 -341.74,956.57 -526.95,1306.11 -79.66,150.31 -299.11,106.39 -460.71,76.78z"/>
    </g>
    <g>
     <path class="fil2" d="M23168.78 1894.54c24.51,-45.76 10.83,-7.88 17.49,-65.67 16.64,-144.4 -4.62,-293.47 120.4,-474.89 72.37,-105.02 200.6,-263.52 378.37,-273.88 -30.91,188.03 -102.77,393.51 -155.67,573.78 -94.86,323.22 -262.09,982.91 -450.25,1235.09 -122.53,164.21 -182.58,187.97 -352.59,210.41 26.43,278.1 456.91,387.16 676.81,38.58 220.57,-349.64 375.29,-1021.14 472.4,-1439.01 51.82,391.49 152.2,796.57 241.71,1184.56 80.58,349.23 37.38,401.75 292.53,427.34 249.91,25.06 292.18,-151.51 351.93,-356.86 138.39,-475.62 399.2,-1457.35 589.9,-1896.36 18.27,-42.05 37.79,-75.57 64.13,-109.96 21,-27.41 78.66,-82.45 47.5,-110.05 -45.93,-23.17 -219.62,-32.23 -284.32,-25.56 -85.65,8.81 -190.55,62.92 -229.04,107.77 -41.69,48.56 -123.99,420.7 -150.14,521.04 -45.11,173.1 -96.91,336.03 -143.93,510.62l-135.82 537.54c-45.23,-319.98 -153.18,-681.47 -213.39,-1011.72 -79.63,-436.83 -26,-672.62 -541.24,-703.11 -318.12,-18.83 -694.28,116.32 -858.73,372.48 -248,386.3 -92.65,798.28 261.95,747.86z"/>
     <path class="fil3" d="M24283.37 3378.75c34.22,21.89 76.59,80.68 140.38,103.76 70.03,25.35 153.36,24.31 225.41,1.31 159.22,-50.82 194.03,-131.62 246.51,-292.62 93.34,-286.37 135.4,-556.79 207.12,-854.18 34.26,-142.02 76.27,-273.86 113.76,-409.85 50.31,-182.43 93.95,-436.52 212.98,-586.95 21.65,-27.36 36.06,-33.35 62.5,-68.73 19.78,-26.46 40.19,-65.75 55.54,-89.78 95.3,-149.17 180.48,-158.38 39.41,-322.47 -40.43,62.47 -53.27,83.36 -94.23,137.56 -128.83,170.48 -375.97,1066.03 -432,1270.09 -57.98,211.23 -128.06,422.64 -193.81,633.3 -11.76,37.65 -23.38,75.29 -34.76,112.89 -36.42,120.27 -81.65,269.13 -159.79,318.47 -197.41,124.63 -209.13,38.18 -389.02,47.2z"/>
     <path class="fil3" d="M22886.33 3411.17c2.88,2.92 7.47,2.96 8.99,8.41 1.49,5.36 6.83,6.43 8.88,8.22 287.24,250.12 596.11,-66.96 746.16,-318.27 64.7,-108.36 142.53,-301.44 183.52,-441.9 19.59,-67.13 55.07,-193.49 64.87,-257.7 9.96,-65.24 -6.16,-244.68 -31.88,-284.43 -42.6,93.46 -84.49,338.86 -123.27,452.8 -62.87,184.75 -165.57,444.44 -269.72,603.05 -167.18,254.61 -326.02,277.87 -587.55,229.82z"/>
    </g>
    <g>
     <path class="fil2" d="M18363.36 1853.05c38.9,-188.93 251.61,-810.19 388.42,-972.86 104.8,-124.62 198.15,-172.18 240.16,-212.99 -36.09,-122.41 -140.25,-83.83 -265.58,-71.81 -508.99,48.81 -1436.54,-197.56 -1915.66,176.69l-104.42 83.01c-62.5,79.59 -40.18,17.65 -90.96,96.2 -51.61,79.83 -83.56,95.81 -147.34,215.46 -41.98,78.77 -68.59,178.99 -83.7,280.78 -92.34,622.46 515.43,1002.52 887.7,674.93 20.14,-17.73 178.57,-164.34 116.85,-223.81 -30.87,-39.17 -87.2,-14.03 -147.17,-15.37 -337.08,-7.53 -466.51,-384.86 -185.89,-736.97 78.11,-98.01 273.09,-201.87 459.11,-240.49 219.75,-45.62 433.44,-31.96 654.74,-6.59 6.19,34.57 -89.48,222.21 -111.39,282.51 -91.81,252.55 -212.79,677.3 -306.95,954.4 -63.54,187 -226.46,650.87 -346.4,808.59l-33.01 36.7c-1.54,1.67 -3.91,4.19 -5.43,5.87 -43.25,47.85 -64.05,62.91 -135.53,96.33 -97.7,45.67 -111.92,22.44 -153.23,59.43 59.89,139.92 287.39,151.62 465.32,165.54 373.88,29.24 415.53,-282.03 564.5,-679.91 56.28,-150.31 103.78,-326.47 167.18,-472.53 54.69,44.73 165.47,65.15 217.17,110.82 142.58,125.96 106.29,566.1 212.19,826.14 57.92,142.22 208.88,302.03 429.6,263.16 176.09,-31.02 349.77,-237.51 353.99,-353.37 -111.24,-72.33 -145.09,32.2 -295.22,-139.3 -111.49,-127.35 -106.77,-425.45 -247.41,-639.74 -85.14,-129.73 -110.18,-136.72 -213.71,-229.95 178.99,-105.35 439.97,-377.15 572.06,-527.04 40.79,-46.29 39.25,-26.64 92.25,-94.48l363.14 -372.41c19.15,-17.09 33,-25.83 50.01,-43.37 24.15,-24.91 15.76,-24.37 46.08,-47.09 19.73,-14.8 28.01,-18.69 54.33,-38.83 269.87,-206.49 361.11,-180.9 401.15,-205.05 35.59,-21.49 4.09,13.44 32.22,-31.26 -54.19,-59.4 -183.62,-112.5 -309.41,-111.07 -179.7,2.04 -456.73,135.63 -573.99,281.48 -78.82,98.02 -140.27,129.8 -160.54,155.06l-512.8 608.97c-106.28,94.81 -109.95,126.51 -256.88,232.7 -78.76,56.91 -70.2,30.72 -165.55,51.52z"/>
     <path class="fil3" d="M18859.43 1990.93c86.32,151.17 225,-33.61 304.45,-103.04 82.36,-71.97 186.96,-213.48 250.59,-275.04l345.24 -366.64c33.12,-32.86 52.65,-57.46 86.35,-88.73 19.38,-17.99 31,-26 49.47,-44.32 19.13,-18.99 24,-28.58 45.54,-47.15 58.58,-50.5 144.95,-99.56 203.4,-147.33 46.62,-38.1 52.31,-59.38 82.83,-92.53 29.53,-32.08 64.11,-47.76 98.4,-88.56 -81.38,9.79 -177.03,58.3 -242.16,95.58l-198.05 141.17c-124.99,115.86 -233.01,211.05 -342.87,335.04l-236.21 266.34c-35.98,48.68 -52.44,48.15 -87.79,86.74 -58.14,63.44 -95.5,118.72 -164.73,174.14 -50.2,40.18 -139.57,135.21 -194.46,154.33z"/>
     <path class="fil3" d="M17062.41 1749.2c-12.93,-146.98 -13.62,-225.42 54.82,-343.64 52.44,-90.56 123.18,-170.22 200.11,-218.61 245.39,-154.32 409.22,-119.42 707.2,-133.33l43.01 -89.38c-131,-24.56 -342.59,-11.58 -475.56,5.11 -602.77,75.62 -731.98,637.84 -529.58,779.85z"/>
     <path class="fil3" d="M17182.49 3316.94c99.83,116.16 655.41,299.82 875.61,-70.62 89.55,-150.65 251.82,-703.59 270.6,-910.39 0.67,-7.46 1.72,-25.45 0.81,-32.46 -3.4,-26.3 -1.08,-19.92 -13.01,-32.9 -11.9,19.92 -209.12,638.53 -313.18,840.93 -151.53,294.75 -309.29,289.36 -582.54,260.08 -90.36,-9.68 -168.47,-45.2 -238.29,-54.64z"/>
     <path class="fil3" d="M18478.68 1756.34c55.08,-29.33 87.2,-150.21 137.04,-252.58 97.71,-200.72 196.48,-445.2 362.59,-595.04 28.04,-25.29 81.93,-51.53 104.23,-89.7l-36.71 -92.97c-153.05,68.12 -299.51,276.8 -365.24,434.85 -58.11,139.73 -179.84,442.18 -201.91,595.44z"/>
     <path class="fil3" d="M18882.95 3393.11l40.08 55.47c10.88,10.12 32.36,26.58 46.26,35 36.25,21.95 91.31,32.39 141.33,33.87 179.43,5.3 335.97,-120.77 444.18,-245.53 66.71,-76.91 80.97,-139.53 -0.77,-231.61 -33.67,133.6 -147.77,257.6 -230.57,314.68 -160.73,110.81 -262.88,77.88 -440.51,38.12z"/>
     <path class="fil3" d="M16747.26 2271.5c2.12,2.99 5.69,3.37 7,8.49 1.39,5.44 11.75,13.71 13.69,15.77l66.17 64.31c29.84,18.31 102.04,30.33 140.32,33.7 278.38,24.51 529.43,-219.72 543.64,-317.99 5.78,-39.95 -27.02,-67.4 -49.18,-107.68 -94.2,251.79 -379.23,420.15 -721.64,303.4z"/>
    </g>
    <g>
     <path class="fil2" d="M20477.88 1954.17c-156.74,32.7 -248.77,104.52 -364.53,189 -44.54,32.5 -54.79,61.81 -98.04,96.14 -128.26,101.81 -217.81,377.5 -215.59,533.6 4.51,317.15 216.36,571.93 460.48,665.1 94.72,36.15 204.18,60.33 313.28,63.96 352.69,11.71 803.34,-234.33 963.16,-540.45 96.06,-184 152.51,-390.54 57.96,-603.68 -49.18,-110.9 -157.5,-248.44 -247.66,-310.57 -33.23,-22.9 -84.44,-52.93 -115.53,-76.77 288.74,-139.36 571.82,-281.78 584.47,-659.11 23.3,-695.51 -932.29,-733.41 -1282.84,-476.86 -111.77,81.8 -49.41,25.92 -169.86,146.02 -27.75,27.67 -41.18,58.53 -63.57,94.85 -138.44,224.54 -132,521.02 19.31,719.52l158.96 159.25z"/>
     <path class="fil4" d="M20764.54 2152.12c-209.49,56.72 -368.73,254.6 -421.7,484.85 -128.67,559.27 329.94,618.82 496.8,497.25 135.36,-98.61 224.59,-245.99 254.25,-430.48 16.69,-103.79 -4.72,-303.67 -49.93,-391.19 -26.65,-51.6 -198.66,-182.3 -279.42,-160.43z"/>
     <path class="fil4" d="M21023.08 958.55c-309.94,76.6 -458.67,605.18 -142.02,816.73 57.4,38.35 76.45,40.14 139.13,5.75 137.79,-75.6 280.29,-217.38 317.87,-428.16 44.43,-249.23 -44.94,-461.05 -314.98,-394.32z"/>
     <path class="fil3" d="M20148.76 3467.18c20.86,29.6 -9.98,-2.41 25.35,32.06 133.85,130.61 403.21,171.66 591.61,153.77 366.24,-34.77 789.23,-308.93 931.15,-663.75 74.96,-187.41 115.3,-472.86 -23.94,-624.25 42.75,252.2 63.59,369 -54.22,596.38 -169.52,327.17 -491.2,528.39 -850.47,597.63 -109.82,21.16 -230.48,18.13 -340.22,-1.3 -199.01,-35.22 -185.7,-62.07 -279.26,-90.54z"/>
     <path class="fil3" d="M20471.71 3047.08c-19.08,-201.82 -18.39,-311.81 80.27,-489.88 66.64,-120.26 193.27,-226.01 338.73,-279.16 -219.19,-236.05 -700.46,477.05 -419,769.04z"/>
     <path class="fil3" d="M21389.29 1987.68c105.94,64.2 191.23,1.32 272.19,-71.41 278.03,-249.79 381.54,-521.19 185.11,-876.69 7.13,117.84 50,154.84 36.6,317.66 -16.02,194.56 -114.22,362.95 -267.38,476.26 -33.15,24.53 -67.33,53.73 -103.45,77.29l-123.07 76.89z"/>
     <path class="fil3" d="M20842.86 1641.79c-43.33,-487.89 321.08,-538.74 360.98,-607.84 -211.15,-75.66 -415.46,134.06 -426,385.96 -1.77,42.29 2.3,80.64 13.44,120 11.31,39.93 23.42,74.79 51.58,101.88z"/>
    </g>
    <g>
     <path class="fil2" d="M34022.32 1530.65c-121.17,17 -244.64,74.51 -333.54,126.36 -141.86,82.74 -250.4,196.82 -334.97,336.71 -32.51,53.77 -54.2,89.44 -84.42,150.37 -157.18,316.94 -251.85,776.73 -19.15,1058.08 129.02,156 422.18,268.77 696.49,214.77 233.84,-46.03 408.32,-174.6 558.93,-345.56 24.29,-27.57 67.3,-88.36 93.62,-124.95 36.75,-51.1 58.08,-86.62 88.42,-144.95 150.02,-288.53 253.01,-803.24 23.79,-1059.07 -170.13,-189.88 -422.95,-249.13 -689.17,-211.76z"/>
     <path class="fil4" d="M34095.5 1829.45c-193,78.32 -364.09,420.44 -423.72,609.73 -41.29,131.11 -86.52,315.83 -69.92,455.92 16.83,142.04 95.25,294.42 247.17,246.03 182.94,-58.27 361.4,-441.33 416.27,-612.71 47.75,-149.16 85.13,-278.91 75.94,-448.63 -8.15,-150.69 -75.35,-319.47 -245.74,-250.34z"/>
     <path class="fil3" d="M33369.82 3407.72c405.94,388.12 1017.9,164.31 1308.7,-250.31 62.96,-89.77 163.12,-355.37 167.92,-489.97 -59.87,221.42 -314.21,550.56 -521.73,688.09 -113.53,75.24 -285.66,150.54 -446.82,163.25 -307.61,24.27 -381.26,-70.87 -508.07,-111.06z"/>
     <path class="fil3" d="M33757.79 3051.42c-18.3,-217.45 42.66,-447.54 99.03,-643.71 31.04,-108.02 74.2,-175.1 122.43,-255.11 42.12,-69.89 119.33,-148.97 140.55,-226.96 -125.33,49.12 -277.66,318.16 -336.92,453.53 -41.86,95.61 -69.77,204.39 -87.12,320.53 -9.13,61.14 -16.06,130.81 -11.24,195.91 6.57,88.99 20.56,111.71 73.27,155.81z"/>
    </g>
    <g>
     <path class="fil2" d="M35662.09 1871.7c77.15,-268.91 41.18,-443.97 -291.08,-366.92 -129.32,29.99 -121.03,132.81 -147.38,252.17 -23.78,107.72 -46.97,213.46 -71.18,321.39 -63.07,281.12 -152.07,663.46 -238.72,938.77 -33.39,106.08 -78.4,186.43 -112.52,291.99 13.37,8.09 11.92,9.57 41.3,17.91l278.55 31.92c148.66,10.09 161.29,-32.91 203.6,-153.65 86.63,-247.23 142.86,-582.08 222.23,-839.26 26.96,-87.37 83.36,-158.07 124.76,-223.23 53.78,-84.64 249.74,-336.04 415.13,-278.06 72.66,83.9 -67.3,419.47 -101.36,537.51 -53.52,185.46 -129.83,377.44 -153.37,573.26 -12.73,105.95 -9.95,247.42 55.94,308.6 195.1,181.18 741.84,40.94 659.04,-295.72 -111.69,-8.76 -94.65,53.45 -162.41,59.37 -79,6.9 -75.47,-71.55 -60.1,-137.36 26.02,-111.39 59.47,-233.4 92.08,-343.76 52.37,-177.26 168.92,-514.57 184.45,-689.27 27.75,-312.12 -170.88,-443.33 -457.08,-397.9 -218.5,34.69 -378.48,220.25 -481.88,392.24z"/>
     <path class="fil3" d="M34854.03 3420.16c56.34,50.93 86.01,102.81 211.7,115.05 368.54,35.89 367.35,-9.56 497.09,-556.5 109.41,-461.26 31.39,-443.4 298.27,-762.28 57.08,-68.21 91.32,-130.81 134.78,-230.25 -475.56,169.41 -442.42,985.64 -620.58,1345.16 -105.64,213.17 -339.51,70.58 -521.26,88.82z"/>
     <path class="fil3" d="M36415.56 2931.5c139.12,-114.64 70.61,73.39 162.81,-245.39 30.4,-105.1 58.18,-214.28 86.65,-320.95 44.83,-167.96 123.56,-425.6 57.05,-597.1l-47.97 -75.52c42.33,457.12 -211.38,844.56 -258.54,1238.96z"/>
     <path class="fil3" d="M35926.48 3416.94c64.57,41.97 82.47,83.18 245.04,104.77 236.54,31.4 557.3,-82.67 528.16,-388.18 -8.12,-85.21 -44.59,-108.89 -63.2,-128.08 -2.44,-2.52 -6.54,-6.46 -9.93,-9.57 8.84,100.53 7.45,189.85 -45.94,261.14 -98.46,131.47 -219.4,217.86 -384.01,201.05 -112.16,-11.46 -168.72,-13.21 -270.12,-41.13z"/>
    </g>
    <g>
     <path class="fil2" d="M32069.43 3281.6c60.14,34.38 146.76,78.14 249.94,82.04 153.57,5.82 182.68,-4.28 224.17,-129.73 56.92,-172.1 111.5,-350.9 160.38,-523.12 48.12,-169.58 314.29,-970.69 285.73,-1093.24 -32.58,-139.78 -449.43,-120.66 -488.5,21.41 -46.9,170.5 -81.59,380.69 -125.26,559.35 -61.02,249.66 -304.6,936.2 -306.46,1083.29z"/>
     <path class="fil2" d="M32945.82 892.6c-396.34,67.94 -445.94,590.55 -74.13,523.21 402.99,-72.99 408.18,-580.47 74.13,-523.21z"/>
     <path class="fil3" d="M32142.66 3418.57c57.72,140.16 447.21,198.81 544.98,33.04 107.28,-181.89 224.54,-986.38 324.69,-1245.14 50.23,-129.81 223.76,-472.75 80.27,-589.06 -34.55,345.08 -201.04,769.71 -299.15,1097.74 -55.09,184.22 -103.54,359.28 -160.79,537.72 -32.91,102.62 -50.86,158.02 -162.28,184.26 -107.84,25.38 -235.75,11.84 -327.72,-18.56z"/>
     <path class="fil3" d="M32994.7 1484.59c29.12,30.82 59.29,59.63 95.84,77.16 126.14,-56.33 191.02,-117.64 244.78,-225.98 62.26,-125.46 6.42,-268.68 -73.03,-328.35 24.52,355.12 -129.26,360.97 -267.59,477.17z"/>
    </g>
    <g>
     <path class="fil2" d="M30888.42 1722.52c56,75.22 130.93,65.62 243.06,58.2 -63.36,222.03 -123.19,435.72 -183.43,652.03 -53.04,190.47 -180.67,493.18 -145.01,700.11 51.49,298.8 501.65,359.26 804.99,44.2 83.62,-86.84 137.55,-154.12 86.98,-305.53 -126.5,-35.62 -242.17,172.11 -388.14,113.3 -27.8,-91.31 285.35,-1161.9 315.5,-1206.18 115.67,9.77 240.87,27.06 330.7,-30.22 61.47,-39.19 147.8,-141.74 103.74,-256.37l-374.01 -8.41c23.8,-102.09 123.76,-333.46 56.62,-415.3 -74.59,-90.93 -343.19,-29.15 -416.38,34.07 -89.89,77.65 -47.34,354.45 -144.59,391.33 -73.76,27.98 -197.88,-7.64 -242.25,22.37 -45.92,31.07 -63.98,142.64 -47.78,206.4z"/>
     <path class="fil3" d="M31674.39 1861.61c-23.82,223.92 -244.25,799.04 -284.38,1052.04 102.67,-47.51 117.94,-43.89 140.16,-178.3 38.34,-231.98 137.56,-538.28 189.92,-782.6 205.76,25.5 332.5,20.93 365.79,-198.9 -108.03,122.21 -196.63,128.64 -411.49,107.76z"/>
     <path class="fil3" d="M30943.88 3431.5c396.83,252.2 623.65,-10.73 797.17,-61.75 -27.25,-35.32 -41.73,-32.71 -67.1,-112.79 -113.55,134.7 -344.73,215.01 -531.78,211.9 -89.79,-1.5 -133.44,-32.19 -198.29,-37.36z"/>
    </g>
    <g>
     <path class="fil2" d="M25721.94 2860.67c-32.17,-141.81 13.86,-191.99 57.69,-330.94 56.34,-178.64 312.6,-993.61 268.63,-1078.25 -60.36,-116.18 -289.33,-62.73 -395.17,-23.84 -118.58,43.57 -67.41,144.08 -137.21,377.91 -104.94,351.59 -570.2,1420.17 -0.44,1494.13 202.41,26.27 406.57,-94.67 543.45,-212.58 59.43,-51.2 66.77,-95.12 119.53,-140.89 -44.49,441.52 500.31,401.49 702.45,177.77 141.28,-156.36 77.08,-321.53 59.74,-290.84l-48.41 -6.07c-56.11,6.33 -106.48,67.83 -168.85,78.54 -124.88,21.44 -89.47,-102.59 -64.98,-180.68 108.9,-347.26 202.12,-619.79 296.48,-980.6 54.77,-209.43 127.66,-392.67 -180.91,-373.02 -67.64,4.31 -207.85,27.39 -239.32,84.71 -8.3,15.11 -53.3,224.17 -61.72,259.45 -34.72,145.38 -100.25,361.16 -153.95,500.35 -94.23,244.28 -259.64,711.88 -597.01,644.85z"/>
     <path class="fil3" d="M25408.08 3367.14c112.59,102.88 224.51,127.77 400.16,66.42 192.1,-67.09 216.24,-118.6 345.34,-194.31 -12.06,-42.14 -20.05,-50.33 -30.32,-92.79 -126.22,75.17 -246.3,220.26 -500.87,244.04 -118.43,11.07 -125.02,-12.83 -214.31,-23.36z"/>
     <path class="fil3" d="M26318.47 3346.06c2.56,3.29 6.73,3.8 8.19,9.45l16.37 17.67c2.27,2.11 5.72,5.5 8.27,7.7 200.82,173.57 589.25,-30.71 655.25,-160.74l-26.43 -66.25c-93.52,74.12 -136.11,130.35 -279.61,181.7 -155.66,55.7 -225.64,49.43 -382.04,10.47z"/>
    </g>
    <g>
     <path class="fil2" d="M27632.66 1392.56l-266.86 -2.44c-42.4,134.08 -107.55,337.55 188.39,280.93 -67.09,206.08 -114,434.5 -182.47,643.5 -62.02,189.31 -179.72,479.93 -152.43,692.22 61.15,475.65 973.75,273.67 906.09,-247.18 -138.54,-15.59 -236.08,156.99 -396.07,120.11 -20.6,-136.38 289.26,-1160.19 323.42,-1206.58 124.38,14.99 218.66,43.01 313.78,-39.08 72.9,-62.92 130.61,-123.57 90.04,-251.72l-353.46 8.47c75.96,-358.79 239.69,-528.04 -137.26,-468.09 -367.28,58.42 -234.7,182.63 -333.17,469.86z"/>
     <path class="fil3" d="M28103.8 1769.09l-297.87 1028.1c141.77,-34.88 135.93,-114.37 147.17,-165.83 43.04,-197.12 185.47,-651.99 197.48,-779.3 330.5,30.57 286.27,-76.59 315.44,-162.35 -138.48,74.74 -135.15,115.87 -362.22,79.38z"/>
     <path class="fil3" d="M27374.1 3332.05c233.31,193.16 556.59,81.3 729.43,-84.98l-32.72 -54.21c-2.01,-3.28 -4.71,-7.32 -6.66,-10.35l-15.01 -20.99c-55.66,111.6 -322.6,219.25 -491.28,212.66 -86.56,-3.38 -112.17,-34.59 -183.76,-42.13z"/>
    </g>
    <g>
     <path class="fil2" d="M29633.03 3298.11c141.73,69.7 393.17,165.77 479.17,-40.4 79.81,-191.31 443.72,-1572.59 418,-1665.79 -36.86,-133.58 -278.4,-87.84 -391.45,-55.08 -72.49,21.01 -74.69,25.21 -88.99,95.71 -38.72,190.9 -79.12,378.18 -127.26,568.15 -48.16,190.06 -302.42,974.37 -289.47,1097.41z"/>
     <path class="fil2" d="M30428.41 865.06c-366.77,83.64 -367.12,614.96 37.85,525.54 392.97,-86.77 370.29,-618.6 -37.85,-525.54z"/>
     <path class="fil3" d="M29707.54 3437.1c145.03,197.39 450.52,141.61 518.42,67.33 81.56,-89.22 245.48,-954.88 289.14,-1135.86 32.39,-134.26 138.67,-459.84 91.91,-584.49 -20.49,35.76 -112.65,434.36 -133.5,514 -53.2,203.14 -225.91,863.57 -287.93,1021.64 -77.42,197.33 -277.71,151.41 -478.04,117.38z"/>
     <path class="fil3" d="M30565.26 1461.04c10.9,8.74 30.73,24.99 46.3,40.55 56.45,-19.55 14.63,-16.67 63.76,-35.3 43.99,-16.67 125.07,0.62 180.12,-139.39 50.4,-128.2 38.27,-234.05 -34.02,-325.82 23.75,282.03 -77.71,350.03 -256.16,459.96z"/>
    </g>
   </g>
  </g>
  <path class="fil5" d="M33458.16 5291.63c1084.1,-512.82 -1128.25,-852.22 -2231.11,-980.16 -3590.24,-416.48 -11282.03,-355.6 -13469.85,611.64 -508.76,224.95 -548.42,695.7 224.49,530.78 2206.77,-470.87 2895.73,-651.06 6266.93,-740.7 6359.09,-169.09 8564.44,575.63 9209.54,578.44z"/>
  <path class="fil6" d="M35239.39 4082.56c-1033.87,368.59 -562.87,1729.81 455.04,1434.83 884.13,-256.2 530.46,-1786.18 -455.04,-1434.83z"/>
 </g>
</svg>
